<svg xmlns="http://www.w3.org/2000/svg" xmlns:xlink="http://www.w3.org/1999/xlink" viewBox="0 0 620.64 451.75"><defs><style>.cls-1{fill:url(#linear-gradient);}.cls-2{fill:url(#linear-gradient-2);}.cls-3{fill:url(#linear-gradient-3);}</style><linearGradient id="linear-gradient" x1="144.72" y1="-1.8" x2="355.26" y2="305.93" gradientUnits="userSpaceOnUse"><stop offset="0" stop-color="#21367f"/><stop offset="0.28" stop-color="#194e91"/><stop offset="0.88" stop-color="#068bc0"/><stop offset="1" stop-color="#0298ca"/></linearGradient><linearGradient id="linear-gradient-2" x1="240.51" y1="2.35" x2="384.16" y2="212.29" xlink:href="#linear-gradient"/><linearGradient id="linear-gradient-3" x1="271.43" y1="-88.32" x2="481.74" y2="219.06" xlink:href="#linear-gradient"/></defs><g id="Layer_2" data-name="Layer 2"><g id="Layer_1-2" data-name="Layer 1"><path class="cls-1" d="M241,0h.23a0,0,0,0,1,0,0V161.14a47.61,47.61,0,0,1-47.61,47.61h-.23a0,0,0,0,1,0,0V47.61A47.61,47.61,0,0,1,241,0Z"/><path class="cls-2" d="M286.4,38.27h.23a47.61,47.61,0,0,1,47.61,47.61v84.59a0,0,0,0,1,0,0H334a47.61,47.61,0,0,1-47.61-47.61V38.27A0,0,0,0,1,286.4,38.27Z"/><path class="cls-3" d="M379.36,0h.23a47.61,47.61,0,0,1,47.61,47.61V208.75a0,0,0,0,1,0,0H427a47.61,47.61,0,0,1-47.61-47.61V0a0,0,0,0,1,0,0Z"/><path d="M142.84,301.39v99.69h0A23.81,23.81,0,0,1,119,377.28V297.21a.36.36,0,0,0-.7-.09l-6.24,23.32-6.39,23.81-8.84,33-1.64,6.08h0a23.91,23.91,0,0,1-23.1,17.72H70.75a23.91,23.91,0,0,1-23.09-17.72l0-.18L46,377.28l-8.84-33-6.39-23.81L24.51,297a.36.36,0,0,0-.71.1v80.2A23.8,23.8,0,0,1,0,401.08H0V301.39a31,31,0,0,1,31-31h7.86a4.16,4.16,0,0,1,4,3.09l4.75,17.71.81,3,7,26.21,6.38,23.81,8.75,30.09a.89.89,0,0,0,1.71,0l8.78-30.09,6.37-23.81,7-26.21.76-2.83,4.8-17.89a4.16,4.16,0,0,1,4-3.09h7.83A31,31,0,0,1,142.84,301.39Z"/><path d="M183.42,294.23v26.21H231a23.81,23.81,0,0,1,23.81,23.81H183.42v33H231a23.8,23.8,0,0,1,23.8,23.8h-66a29.28,29.28,0,0,1-29.28-29.27V299.69a29.27,29.27,0,0,1,29.28-29.27h66a23.81,23.81,0,0,1-23.8,23.8Z"/><path d="M295.42,294.23v26.21H343a23.82,23.82,0,0,1,23.82,23.81H295.42v33H343a23.8,23.8,0,0,1,23.81,23.8h-66a29.27,29.27,0,0,1-29.27-29.27V299.69a29.26,29.26,0,0,1,29.27-29.27h66A23.81,23.81,0,0,1,343,294.23Z"/><path d="M620.64,335.43a65.2,65.2,0,0,1-105.88,50.95l.18-.29a25,25,0,0,1,28.51-11,41.4,41.4,0,1,0,12-81,42.53,42.53,0,0,0-5.89.41,41.42,41.42,0,0,0-35.51,41,64.94,64.94,0,0,1-6.13,27.62L502,372.79,500.63,375a65.21,65.21,0,1,1-11.36-90.76l-.24.4a25.31,25.31,0,0,1-28.78,10.95,41.41,41.41,0,1,0-11.43,81.21,43.62,43.62,0,0,0,5.52-.36,41.42,41.42,0,0,0,35.88-41,64.88,64.88,0,0,1,7.81-31l3.34-5.5c.24-.37.5-.74.76-1.11a65.21,65.21,0,0,1,118.51,37.57Z"/><path d="M3.33,429v22.41H0V429Z"/><path d="M15.75,451.43V429h4.32c3.14,5.2,9.78,16,11,18.39h0c-.22-2.77-.2-6.37-.2-10V429H34v22.41H29.94c-2.85-4.77-9.85-16.47-11.2-19h0c.16,2.44.17,6.39.17,10.43v8.56Z"/><path d="M48,445.13c.58,2.61,2.38,4,5.5,4,3.33,0,4.66-1.52,4.66-3.55s-1.1-3.34-5.47-4.39c-5.43-1.31-7.21-3.19-7.21-6.32,0-3.44,2.55-6.14,7.61-6.14,5.45,0,7.68,3.11,8,6.11H57.67c-.37-1.88-1.53-3.49-4.72-3.49-2.59,0-4.06,1.15-4.06,3.19s1.21,2.79,5.08,3.72c6.41,1.55,7.6,4,7.6,7,0,3.7-2.76,6.53-8.32,6.53s-8.18-3-8.66-6.59Z"/><path d="M72.25,429H80.9c4.44,0,7.47,2.48,7.47,6.6,0,4.46-3.25,6.76-7.64,6.76H75.59v9.05H72.25Zm3.34,10.61H80.5c2.91,0,4.45-1.38,4.45-3.93s-1.82-3.92-4.34-3.92h-5Z"/><path d="M102.22,429v22.41H98.9V429Z"/><path d="M117.93,441.73v9.7h-3.29V429h9c4.66,0,7.14,2.54,7.14,6a5.13,5.13,0,0,1-3.71,5.27c1.69.48,3.3,1.8,3.3,5.72v1a16.23,16.23,0,0,0,.3,4.4h-3.21a15.64,15.64,0,0,1-.39-4.86v-.44c0-3.05-.85-4.4-4.79-4.4Zm0-2.76h4.72c3.28,0,4.69-1.23,4.69-3.63s-1.48-3.56-4.4-3.56h-5Z"/><path d="M145.43,429v22.41H142.1V429Z"/><path d="M157.85,451.43V429h4.32c3.14,5.2,9.79,16,11,18.39h.05c-.23-2.77-.21-6.37-.21-10V429h3.11v22.41h-4.07c-2.86-4.77-9.86-16.47-11.2-19h0c.16,2.44.17,6.39.17,10.43v8.56Z"/><path d="M206.79,451.43h-2.52a12.55,12.55,0,0,1-.3-2.88c-1,1.61-3,3.2-6.88,3.2-6.47,0-9.94-4.91-9.94-11.29,0-6.71,3.72-11.76,10.54-11.76,5.32,0,8.62,2.9,9.24,6.87H203.6c-.7-2.31-2.39-4.14-6-4.14-5.09,0-7,4.09-7,8.88,0,4.47,2,8.68,6.91,8.68s6-3.25,6-6.7v-.23h-6v-2.81h9.29Z"/><path d="M237.55,431.84H230.4V429h17.66v2.82H240.9v19.59h-3.35Z"/><path d="M257.68,429H261v9.24h11.17V429h3.33v22.41h-3.33V441.08H261v10.35h-3.33Z"/><path d="M302.23,441.11H291.17v7.51h12.16l-.42,2.81h-15V429h14.84v2.82H291.17v6.45h11.06Z"/><path d="M331.64,429v22.41h-3.33V429Z"/><path d="M344.06,451.43V429h4.32c3.14,5.2,9.79,16,11,18.39h.05c-.23-2.77-.21-6.37-.21-10V429h3.11v22.41h-4.07c-2.86-4.77-9.86-16.47-11.21-19h0c.16,2.44.17,6.39.17,10.43v8.56Z"/><path d="M379.36,431.84h-7.15V429h17.66v2.82h-7.16v19.59h-3.35Z"/><path d="M413.81,441.11H402.74v7.51H414.9l-.41,2.81h-15V429h14.84v2.82H402.74v6.45h11.07Z"/><path d="M425.3,429h3.33v19.6h11.59l-.44,2.81H425.3Z"/><path d="M449.83,429h3.32v19.6h11.59l-.44,2.81H449.83Z"/><path d="M477.68,429v22.41h-3.33V429Z"/><path d="M508.35,451.43h-2.52a12.55,12.55,0,0,1-.3-2.88c-1,1.61-3,3.2-6.88,3.2-6.47,0-9.94-4.91-9.94-11.29,0-6.71,3.73-11.76,10.55-11.76,5.31,0,8.61,2.9,9.23,6.87h-3.33c-.7-2.31-2.38-4.14-6-4.14-5.09,0-7,4.09-7,8.88,0,4.47,2,8.68,6.92,8.68s6-3.25,6-6.7v-.23h-6.05v-2.81h9.29Z"/><path d="M534.48,441.11H523.42v7.51h12.16l-.42,2.81h-15V429H535v2.82H523.42v6.45h11.06Z"/><path d="M546,451.43V429h4.33c3.13,5.2,9.78,16,11,18.39h.05c-.22-2.77-.2-6.37-.2-10V429h3.11v22.41h-4.08c-2.86-4.77-9.85-16.47-11.2-19h-.05c.16,2.44.18,6.39.18,10.43v8.56Z"/><path d="M594.49,445c-1,3.88-3.87,6.75-9,6.75-6.78,0-10.16-5.08-10.16-11.42,0-6.1,3.4-11.6,10.29-11.6,5.42,0,8.29,3.11,8.93,6.85h-3.33a5.42,5.42,0,0,0-5.72-4.12c-4.77,0-6.7,4.32-6.7,8.77,0,4.28,1.81,8.79,6.83,8.79a5.5,5.5,0,0,0,5.57-4Z"/><path d="M619.54,441.11H608.48v7.51h12.16l-.42,2.81h-15V429h14.84v2.82H608.48v6.45h11.06Z"/></g></g></svg>